<svg width="94" height="103" viewBox="0 0 94 103" fill="none" xmlns="http://www.w3.org/2000/svg">
<g clip-path="url(#clip0_5_767)">
<path d="M44.2098 99.6519C47.5463 99.6519 50.7165 99.6519 54.0336 99.6519C54.0336 99.2286 54.0336 98.8301 54.0336 98.4317C54.0336 84.8926 54.0336 71.3507 54.0336 57.8116C54.0336 56.1127 54.1584 55.9854 55.8586 55.9854C58.5184 55.9826 61.1754 55.9799 63.8352 55.9854C65.2525 55.9882 65.4549 56.1929 65.4577 57.6041C65.4605 71.1792 65.4577 84.7542 65.4577 98.3265C65.4577 98.7333 65.4577 99.14 65.4577 99.6187C68.7249 99.6187 71.9145 99.6187 75.2538 99.6187C75.2538 83.7249 75.2538 67.8366 75.2538 51.8155C79.2781 52.391 83.0113 51.8487 86.6945 50.1165C86.6945 66.7049 86.6945 83.1189 86.6945 99.6907C87.1605 99.6907 87.5238 99.6907 87.8871 99.6907C89.371 99.6907 90.8576 99.663 92.3414 99.7073C93.301 99.7349 94 100.485 93.9972 101.359C93.9972 102.247 93.3066 102.931 92.3359 102.995C92.0613 103.011 91.7839 103 91.5066 103C61.841 103 32.1783 103 2.51277 103C0.418767 103 -0.00280762 102.571 -0.00280762 100.441C-0.00280762 70.778 -0.00280762 41.1126 -3.41013e-05 11.45C-3.41013e-05 11.0045 -0.0194487 10.5424 0.0859449 10.1163C0.307826 9.22533 0.934641 8.7909 1.85267 8.87945C2.72633 8.96523 3.21724 9.49373 3.30322 10.3598C3.34483 10.7693 3.32541 11.1872 3.32541 11.5994C3.32541 40.4707 3.32541 69.3419 3.32541 98.2131C3.32541 98.6558 3.32541 99.0958 3.32541 99.616C6.04623 99.616 8.68662 99.616 11.5045 99.616C11.5045 99.2396 11.5045 98.8467 11.5045 98.4538C11.5045 92.7344 11.5045 87.0149 11.5045 81.2954C11.5045 79.5771 11.6571 79.4332 13.4182 79.4332C15.87 79.4332 18.3218 79.4332 20.7736 79.4332C22.8676 79.4332 22.9564 79.5218 22.9564 81.5611C22.9564 87.1782 22.9564 92.7925 22.9564 98.4095C22.9564 98.7859 22.9564 99.1622 22.9564 99.616C26.1986 99.616 29.3881 99.616 32.7441 99.616C32.7441 99.2424 32.7441 98.8467 32.7441 98.451C32.7441 88.9075 32.7441 79.3641 32.7441 69.8206C32.7441 68.1714 32.9327 67.9805 34.5857 67.9805C37.2095 67.9777 39.836 67.9777 42.4597 67.9805C43.9935 67.9832 44.2043 68.1852 44.2043 69.7043C44.207 79.2119 44.207 88.7222 44.207 98.2297C44.2098 98.6669 44.2098 99.1096 44.2098 99.6519Z" fill="#D99EB4"/>
<path d="M43.4887 31.8541C44.0961 29.5823 44.6397 27.4241 45.2638 25.2907C45.4912 24.5076 45.4302 23.921 44.9587 23.2043C41.5889 18.0743 41.7858 11.295 45.3747 6.30053C49.0025 1.25347 55.29 -1.04594 61.389 0.448261C67.2689 1.88712 71.8341 6.96185 72.6689 12.9829C74.1555 23.7273 64.1681 32.4794 53.6814 29.6432C53.1517 29.4993 52.5193 29.5021 51.9868 29.6377C49.3797 30.2879 46.7864 31.0046 44.1877 31.6964C43.9991 31.7462 43.8105 31.7821 43.4887 31.8541ZM64.9169 7.52633C64.4621 7.0836 64.0793 6.49699 63.5357 6.23689C62.7536 5.86058 62.0768 6.28393 61.5859 6.96739C58.083 11.8346 54.5773 16.6963 51.0826 21.5663C50.417 22.496 50.5251 23.4644 51.2906 24.04C52.1088 24.657 53.074 24.4689 53.7868 23.4866C57.2787 18.6553 60.7594 13.8186 64.2291 8.97072C64.4815 8.61931 64.6091 8.18212 64.9169 7.52633ZM50.7137 10.0748C50.7332 11.4804 51.9147 12.6287 53.3042 12.5955C54.7021 12.5651 55.842 11.3753 55.8142 9.97792C55.7865 8.56673 54.6216 7.44609 53.2099 7.47099C51.7954 7.49866 50.6943 8.64698 50.7137 10.0748ZM62.0158 17.9248C60.5902 17.9193 59.4503 19.0399 59.442 20.4539C59.4337 21.8734 60.5542 22.9968 61.9825 23.0051C63.3998 23.0134 64.5591 21.8872 64.573 20.4871C64.5869 19.1008 63.4165 17.9304 62.0158 17.9248Z" fill="#D99EB4"/>
<path d="M57.7168 41.1154C58.0136 40.8055 58.2243 40.5731 58.4462 40.3517C59.8108 38.9876 61.1476 37.5902 62.5594 36.2759C63.1723 35.7059 63.4774 35.1387 63.311 34.303C63.0919 33.2045 63.408 32.5819 64.6062 32.0922C70.3086 29.7678 73.9335 25.526 75.5477 19.6045C75.7252 18.9515 75.997 18.7108 76.6405 18.6388C84.8085 17.7202 92.2415 23.4203 93.3898 31.5055C94.5519 39.6794 88.9299 47.3053 80.7092 48.5422C75.6781 49.3003 71.3181 47.7757 67.6377 44.2616C67.2383 43.8797 66.6974 43.567 66.1677 43.4148C63.4219 42.6318 60.6567 41.9096 57.7168 41.1154ZM75.7862 42.8946C75.8611 42.8504 75.936 42.8033 76.0109 42.7591C76.022 42.8614 76.0331 42.9611 76.0414 43.0634C76.1468 44.2865 76.6932 44.9229 77.6639 44.9561C78.6402 44.9893 79.1533 44.4276 79.389 43.1796C79.4334 42.9472 79.6719 42.6816 79.891 42.5709C80.4097 42.308 80.9977 42.1808 81.5136 41.9096C85.0914 40.0418 85.3188 35.4956 81.888 33.3567C80.9173 32.7507 79.7413 32.4602 78.6374 32.0866C77.8581 31.8237 77.026 31.7131 76.2494 31.4419C75.5311 31.1929 74.9764 30.7197 74.9875 29.8619C74.9986 28.9986 75.5034 28.4701 76.2383 28.1215C77.9108 27.3246 79.7025 27.9029 80.6649 29.5492C81.2639 30.5758 82.0877 30.8996 82.9724 30.4596C83.8905 30.0003 84.1318 29.0678 83.5937 27.9831C82.8754 26.5304 81.7632 25.4762 80.235 24.9338C79.6387 24.7235 79.353 24.4856 79.3308 23.8049C79.3003 22.8918 78.7012 22.3716 77.7776 22.3356C76.843 22.2996 76.169 22.8171 76.1274 23.697C76.0858 24.5824 75.6115 24.7844 74.9459 25.0805C72.9295 25.9798 71.7009 27.4961 71.6648 29.7872C71.6288 32.1171 72.899 33.5863 74.9265 34.4746C75.6753 34.8038 76.5046 34.9477 77.295 35.1857C78.1826 35.4513 79.1478 35.5924 79.9216 36.0518C80.4208 36.3478 80.9062 37.1226 80.8951 37.6733C80.8867 38.1519 80.2683 38.8077 79.7579 39.0623C77.5336 40.1608 75.4396 39.3556 74.3191 37.0977C73.9114 36.2759 73.2263 35.9522 72.3471 36.1957C71.4512 36.4475 70.9881 37.1392 71.221 38.0053C71.4485 38.8465 71.7619 39.8039 72.3554 40.3766C73.365 41.3534 74.6297 42.0673 75.7862 42.8946Z" fill="#D99EB4"/>
<path d="M18.5853 45.2604C19.7863 49.7291 20.9595 54.0955 22.1715 58.6058C19.434 59.2865 16.8047 60.1774 14.1033 60.5565C10.4534 61.0684 7.21391 58.5421 6.60373 55.1055C5.95196 51.4447 8.01545 48.1713 11.6709 47.1281C13.9203 46.4889 16.1862 45.9079 18.5853 45.2604Z" fill="#D99EB4"/>
<path d="M29.1247 37.6206C31.0855 44.92 33.0353 52.1752 34.9962 59.4746C31.8427 59.0208 28.7364 58.5753 25.4858 58.1077C24.2322 53.4425 22.9258 48.5836 21.65 43.8464C24.1434 41.7684 26.5702 39.7457 29.1247 37.6206Z" fill="#D99EB4"/>
<path d="M44.1377 59.115C44.1627 60.6756 42.9507 61.6855 41.5833 61.3645C40.7818 61.1764 39.983 60.9329 39.2231 60.6202C38.9374 60.5012 38.6379 60.1498 38.5574 59.8482C36.3941 51.8902 34.2529 43.9295 32.1478 35.9577C32.0508 35.5952 32.2588 35.0584 32.4973 34.7236C32.8495 34.2255 33.346 33.8243 33.7953 33.3982C35.2237 32.0368 37.0015 32.4906 37.5229 34.3943C38.8403 39.1979 40.1217 44.0125 41.4169 48.8244C42.2628 51.976 43.106 55.1304 43.9464 58.2821C44.0323 58.6086 44.0989 58.9462 44.1377 59.115Z" fill="#D99EB4"/>
<path d="M18.5326 62.9861C20.2522 62.524 21.8053 62.1089 23.4695 61.6606C24.2655 64.6241 25.0531 67.5517 25.838 70.4653C22.9092 71.7824 20.6349 70.7254 19.8167 67.7343C19.3924 66.1847 18.9764 64.6324 18.5326 62.9861Z" fill="#D99EB4"/>
<path d="M43.02 41.9814C44.845 42.4352 45.9516 43.4258 46.3316 45.0612C46.6894 46.5941 46.2817 47.9582 44.9532 49.1453C44.3069 46.738 43.6912 44.4635 43.02 41.9814Z" fill="#D99EB4"/>
</g>
<defs>
<clipPath id="clip0_5_767">
<rect width="94" height="103" fill="white"/>
</clipPath>
</defs>
</svg>
