<svg width="108" height="104" viewBox="0 0 108 104" fill="none" xmlns="http://www.w3.org/2000/svg">
<g clip-path="url(#clip0_5_753)">
<path d="M39.6379 9.8457C39.6379 7.55862 39.6379 5.16691 39.6379 2.7752C39.6379 2.44972 39.6234 2.12133 39.6437 1.79585C39.7163 0.711883 40.4654 -0.032074 41.4381 -0.000107047C42.4165 0.0318599 43.1017 0.775817 43.1134 1.90047C43.1337 4.18756 43.1192 6.47465 43.1221 8.76464C43.1221 9.15696 43.1221 9.55219 43.1221 9.83408C60.5283 12.342 70.3856 22.2198 72.9464 39.6679C75.0543 39.6679 77.2929 39.6679 79.5315 39.6679C80.0018 39.6679 80.478 39.6476 80.9454 39.6825C82.0981 39.7696 82.7717 40.4351 82.7601 41.4406C82.7485 42.4432 82.0575 43.1204 80.9019 43.1378C78.6895 43.1698 76.477 43.1494 74.2617 43.1523C73.7942 43.1523 73.3268 43.1523 72.9406 43.1523C70.432 60.554 60.5951 70.4492 43.1192 72.9978C43.1192 73.9888 43.1192 75.1367 43.1192 76.2846C43.1192 77.6998 43.1221 79.118 43.1192 80.5333C43.1163 82.0154 42.5123 82.8233 41.4119 82.8407C40.2767 82.8581 39.6408 82.0154 39.6379 80.4752C39.635 78.2956 39.6379 76.116 39.6379 73.9394C39.6379 73.5848 39.6379 73.2274 39.6379 73.0007C22.2114 70.4695 12.357 60.583 9.8281 43.1552C8.20216 43.1552 6.46589 43.1552 4.73252 43.1552C3.7889 43.1552 2.84527 43.1756 1.90165 43.1465C0.757687 43.1087 0.0318219 42.4491 -0.000116171 41.4726C-0.0320542 40.4671 0.717038 39.7086 1.90455 39.6854C4.18958 39.6447 6.4746 39.6679 8.76253 39.6679C9.15159 39.6679 9.54356 39.6679 9.82519 39.6679C12.3657 22.2779 22.191 12.4147 39.6379 9.8457ZM41.3597 55.8258C44.3706 55.8258 47.3785 55.8374 50.3894 55.8228C52.3725 55.8141 53.0519 54.7883 52.3464 52.9197C50.6275 48.3775 46.3043 45.3813 41.4206 45.358C36.5777 45.3319 32.176 48.3455 30.4543 52.8645C29.7168 54.7999 30.3904 55.817 32.4431 55.8258C35.4134 55.8345 38.3865 55.8258 41.3597 55.8258ZM46.8908 42.7716C46.9372 42.8268 46.975 42.9053 47.033 42.9315C50.0526 44.2101 52.477 46.1921 54.2685 48.9587C54.4194 49.1941 54.8521 49.3626 55.154 49.3655C58.3798 49.3946 61.6055 49.4033 64.8283 49.3742C66.3149 49.3626 67.1714 48.2322 66.5588 46.8808C65.8968 45.4162 65.1332 43.9108 64.0792 42.7193C59.5208 37.5726 50.9904 37.6511 46.8908 42.7716ZM35.8547 42.7338C35.846 42.7135 35.8344 42.635 35.7879 42.5885C32.7016 39.4384 28.9619 38.2469 24.688 39.2117C20.4983 40.1591 17.6616 42.8036 16.1983 46.8547C15.6728 48.3106 16.4712 49.3655 18.0507 49.3742C21.2009 49.3946 24.3541 49.4033 27.5044 49.351C27.9079 49.3452 28.3812 49.0052 28.689 48.6884C29.8504 47.5056 30.8608 46.1543 32.1151 45.0907C33.2271 44.152 34.5917 43.5098 35.8547 42.7338ZM27.3331 36.7212C30.5907 36.6979 33.2822 33.9488 33.2213 30.7085C33.1603 27.4566 30.5211 24.8411 27.2953 24.8411C24.0231 24.8411 21.3403 27.5321 21.3519 30.7986C21.3635 34.0621 24.0754 36.7473 27.3331 36.7212ZM49.5823 30.784C49.5823 34.0824 52.2389 36.7386 55.5198 36.7212C58.792 36.7037 61.4284 34.0185 61.4081 30.723C61.3906 27.4885 58.7601 24.8643 55.5169 24.844C52.2389 24.8237 49.5794 27.4856 49.5823 30.784ZM47.2914 37.3489C47.3466 34.0272 44.7683 31.3391 41.4816 31.2926C38.2355 31.249 35.5353 33.8354 35.4744 37.0437C35.4105 40.4293 38.0004 43.1204 41.3423 43.1436C44.6057 43.1727 47.2392 40.6037 47.2914 37.3489Z" fill="#D99EB4"/>
<path d="M74.6509 57.991C79.9497 67.1771 85.2137 76.2993 90.6112 85.6598C89.9696 85.6598 89.5573 85.654 89.1421 85.6598C84.964 85.7237 80.8092 85.9911 76.7443 87.046C76.1375 87.2029 75.7746 87.0779 75.4378 86.488C72.4733 81.2919 69.4625 76.1191 66.5009 70.923C66.3354 70.6324 66.3064 70.028 66.4951 69.8129C69.5263 66.3111 71.9681 62.4111 74.3054 58.4327C74.3751 58.3106 74.4796 58.2089 74.6509 57.991Z" fill="#D99EB4"/>
<path d="M72.5024 88.345C69.3928 90.0945 66.4458 91.9718 63.3158 93.4597C59.1465 95.4387 54.1177 93.544 51.9517 89.4609C49.7828 85.3692 51.0632 80.2196 54.9771 77.7697C57.7383 76.0435 60.5982 74.4743 63.5162 72.7771C66.5183 77.9761 69.4828 83.1082 72.5024 88.345Z" fill="#D99EB4"/>
<path d="M95.9304 85.8428C94.9693 86.0114 94.5077 85.497 94.0606 84.7182C88.5004 75.0264 82.9113 65.3549 77.3279 55.6777C76.605 54.4252 76.9679 53.036 78.2512 52.1148C79.4097 51.2808 80.9485 51.4551 81.8834 52.542C82.0954 52.7861 82.2638 53.0709 82.4264 53.3528C87.8123 62.6842 93.1982 72.0128 98.5754 81.3471C99.641 83.1983 99.0952 85.0582 97.3153 85.6423C96.8827 85.7905 96.3949 85.7818 95.9304 85.8428Z" fill="#D99EB4"/>
<path d="M6.76797 6.84093C6.76797 8.08183 6.76797 9.23554 6.76797 10.3893C6.76797 12.4235 6.78249 14.4549 6.76217 16.4891C6.75055 17.6283 6.08566 18.3665 5.10719 18.41C4.11711 18.4536 3.3535 17.6632 3.28963 16.5153C3.27221 16.1898 3.28382 15.8614 3.28382 15.5359C3.28382 12.1968 3.27801 8.85775 3.28672 5.51576C3.29253 3.93775 3.87903 3.31585 5.44109 3.30713C9.03267 3.28679 12.6213 3.2897 16.2129 3.30423C17.6211 3.31004 18.376 3.94938 18.3702 5.04788C18.3644 6.14638 17.6008 6.777 16.1984 6.78281C13.4779 6.79443 10.7573 6.78571 8.03679 6.78862C7.65063 6.78862 7.26156 6.82059 6.76797 6.84093Z" fill="#D99EB4"/>
<path d="M6.76797 76.0464C9.85434 76.0464 12.7897 76.0464 15.7222 76.0464C17.5717 76.0464 18.4079 76.6247 18.3702 77.8627C18.3354 79.0426 17.5543 79.5337 15.7164 79.5337C12.3804 79.5337 9.04428 79.5366 5.7082 79.5337C3.83547 79.5308 3.28962 78.9961 3.28672 77.1623C3.28381 73.6053 3.28672 70.0482 3.28381 66.4912C3.28381 65.6659 3.51028 64.8899 4.33777 64.6545C4.86039 64.5063 5.65304 64.5354 6.02758 64.8464C6.44858 65.1951 6.72151 65.9448 6.73893 66.529C6.81152 69.2491 6.77087 71.9721 6.77087 74.6951C6.76797 75.0845 6.76797 75.4797 6.76797 76.0464Z" fill="#D99EB4"/>
<path d="M75.9952 6.78579C72.8537 6.78579 69.8834 6.7887 66.9103 6.78289C66.5125 6.78289 66.1031 6.7887 65.7228 6.69571C64.8285 6.47775 64.3843 5.86166 64.4278 4.94624C64.4685 4.07442 64.9505 3.49901 65.807 3.37696C66.5212 3.27525 67.2529 3.30431 67.9788 3.3014C70.9897 3.29559 74.0006 3.29268 77.0114 3.3014C78.9684 3.30431 79.4823 3.81578 79.4823 5.73089C79.4852 9.21528 79.4852 12.7026 79.4823 16.187C79.4794 17.5703 78.8551 18.3782 77.7867 18.4072C76.6834 18.4392 76.0039 17.5964 76.001 16.1637C75.9894 13.0862 75.9952 10.0057 75.9952 6.78579Z" fill="#D99EB4"/>
<path d="M80.6088 102.402C77.1943 105.003 74.0934 104.404 72.0232 100.815C70.8531 98.7866 69.683 96.7552 68.4723 94.6599C70.406 93.5411 72.2468 92.4774 74.2211 91.3383C76.3726 95.058 78.495 98.7342 80.6088 102.402Z" fill="#D99EB4"/>
<path d="M103.035 69.1939C104.202 69.5223 105.613 69.8477 106.969 70.3272C107.808 70.6266 108.16 71.3967 107.93 72.2772C107.707 73.1403 107.071 73.7244 106.177 73.5559C104.728 73.2827 103.288 72.9078 101.897 72.4225C101.055 72.129 100.773 71.3211 101.011 70.4406C101.249 69.5542 101.891 69.1706 103.035 69.1939Z" fill="#D99EB4"/>
<path d="M96.7172 52.0219C96.4065 53.1233 96.0842 54.5385 95.5965 55.8928C95.2742 56.7878 94.4612 57.0959 93.5437 56.8082C92.6262 56.5176 92.1762 55.8027 92.3707 54.8727C92.6436 53.5679 93.0066 52.2747 93.4189 51.0047C93.7121 50.098 94.4525 49.6766 95.3845 49.8859C96.3049 50.0893 96.7723 50.7432 96.7172 52.0219Z" fill="#D99EB4"/>
<path d="M106.662 59.6997C106.47 59.9438 106.191 60.5251 105.732 60.8418C104.757 61.5189 103.703 62.0827 102.655 62.6465C101.671 63.1783 100.695 62.9226 100.201 62.0711C99.7049 61.2109 99.9633 60.2519 100.921 59.6619C101.964 59.0197 103.021 58.3862 104.115 57.8398C105.343 57.2266 106.679 58.0578 106.662 59.6997Z" fill="#D99EB4"/>
<path d="M95.6836 69.345C94.3248 66.9882 92.995 64.6895 91.6449 62.3472C94.7429 62.4373 97.1876 66.4244 95.6836 69.345Z" fill="#D99EB4"/>
</g>
<defs>
<clipPath id="clip0_5_753">
<rect width="108" height="104" fill="white"/>
</clipPath>
</defs>
</svg>
