<svg width="36" height="36" viewBox="0 0 36 36" fill="none" xmlns="http://www.w3.org/2000/svg">
<g clip-path="url(#clip0_5_671)">
<path d="M12 16.1401H11.13C9.94272 16.0971 8.75932 16.2987 7.65322 16.7322C6.54711 17.1657 5.5419 17.8219 4.69996 18.6601L4.45996 18.9401V27.2201H8.53996V22.5201L9.08996 21.9001L9.33996 21.6101C10.6419 20.2726 12.2627 19.2883 14.05 18.7501C13.1552 18.0692 12.4494 17.1707 12 16.1401Z" fill="#D99EB4"/>
<path d="M31.3399 18.63C30.498 17.7919 29.4928 17.1357 28.3867 16.7022C27.2806 16.2687 26.0972 16.0671 24.9099 16.11C24.5458 16.1111 24.182 16.1311 23.8199 16.17C23.362 17.1369 22.6756 17.9778 21.8199 18.62C23.7279 19.1479 25.4563 20.1849 26.8199 21.62L27.0699 21.9L27.6099 22.52V27.23H31.5499V18.91L31.3399 18.63Z" fill="#D99EB4"/>
<path d="M11.1 14.19H11.41C11.266 12.9533 11.483 11.7013 12.0348 10.5851C12.5867 9.469 13.4498 8.53645 14.52 7.90005C14.1321 7.3074 13.5969 6.82566 12.9668 6.502C12.3367 6.17833 11.6334 6.02385 10.9257 6.05368C10.218 6.0835 9.53021 6.29661 8.92961 6.67213C8.32902 7.04765 7.83625 7.57271 7.49955 8.1959C7.16285 8.81909 6.99377 9.51903 7.00886 10.2272C7.02396 10.9354 7.22271 11.6275 7.58565 12.2358C7.9486 12.844 8.46329 13.3476 9.07934 13.6972C9.69539 14.0468 10.3917 14.2304 11.1 14.23V14.19Z" fill="#D99EB4"/>
<path d="M24.43 13.4401C24.4421 13.6699 24.4421 13.9002 24.43 14.1301C24.6219 14.1605 24.8157 14.1772 25.01 14.1801H25.2C25.9052 14.1425 26.5886 13.9229 27.1838 13.5427C27.779 13.1626 28.2656 12.6348 28.5962 12.0108C28.9269 11.3867 29.0903 10.6877 29.0706 9.98179C29.0509 9.27585 28.8488 8.58704 28.4838 7.98241C28.1189 7.37779 27.6036 6.87796 26.9882 6.53159C26.3728 6.18521 25.6781 6.0041 24.9719 6.00587C24.2657 6.00765 23.572 6.19226 22.9583 6.54172C22.3446 6.89119 21.8319 7.39361 21.47 8.00006C22.3751 8.59099 23.1193 9.39736 23.6359 10.3468C24.1525 11.2963 24.4254 12.3592 24.43 13.4401Z" fill="#D99EB4"/>
<path d="M17.87 17.92C20.3387 17.92 22.34 15.9187 22.34 13.45C22.34 10.9813 20.3387 8.97998 17.87 8.97998C15.4013 8.97998 13.4 10.9813 13.4 13.45C13.4 15.9187 15.4013 17.92 17.87 17.92Z" fill="#D99EB4"/>
<path d="M18.11 20.3C16.804 20.2473 15.5009 20.4593 14.279 20.9233C13.0572 21.3873 11.9418 22.0937 11 23L10.75 23.28V29.61C10.7539 29.8162 10.7984 30.0196 10.8809 30.2086C10.9634 30.3975 11.0824 30.5684 11.231 30.7114C11.3796 30.8544 11.5549 30.9668 11.7469 31.042C11.9389 31.1173 12.1438 31.154 12.35 31.15H23.84C24.0462 31.154 24.2511 31.1173 24.4431 31.042C24.6351 30.9668 24.8104 30.8544 24.959 30.7114C25.1076 30.5684 25.2266 30.3975 25.3091 30.2086C25.3916 30.0196 25.4361 29.8162 25.44 29.61V23.3L25.2 23C24.2643 22.0909 23.1528 21.3825 21.9337 20.9182C20.7145 20.4539 19.4134 20.2436 18.11 20.3Z" fill="#D99EB4"/>
</g>
<defs>
<clipPath id="clip0_5_671">
<rect width="36" height="36" rx="18" fill="white"/>
</clipPath>
</defs>
</svg>
