<svg width="21" height="21" viewBox="0 0 21 21" fill="none" xmlns="http://www.w3.org/2000/svg">
<path d="M18.5938 10.4999H7.78313M3.96725 10.4999H2.40625M3.96725 10.4999C3.96725 9.994 4.16822 9.50882 4.52594 9.1511C4.88367 8.79337 5.36885 8.5924 5.87475 8.5924C6.38065 8.5924 6.86583 8.79337 7.22356 9.1511C7.58128 9.50882 7.78225 9.994 7.78225 10.4999C7.78225 11.0058 7.58128 11.491 7.22356 11.8487C6.86583 12.2064 6.38065 12.4074 5.87475 12.4074C5.36885 12.4074 4.88367 12.2064 4.52594 11.8487C4.16822 11.491 3.96725 11.0058 3.96725 10.4999ZM18.5938 16.281H13.5642M13.5642 16.281C13.5642 16.787 13.3628 17.2728 13.005 17.6306C12.6472 17.9884 12.1619 18.1894 11.6559 18.1894C11.15 18.1894 10.6648 17.9876 10.3071 17.6298C9.94934 17.2721 9.74837 16.7869 9.74837 16.281M13.5642 16.281C13.5642 15.775 13.3628 15.2902 13.005 14.9324C12.6472 14.5745 12.1619 14.3735 11.6559 14.3735C11.15 14.3735 10.6648 14.5745 10.3071 14.9322C9.94934 15.2899 9.74837 15.7751 9.74837 16.281M9.74837 16.281H2.40625M18.5938 4.71878H15.8769M12.061 4.71878H2.40625M12.061 4.71878C12.061 4.21288 12.262 3.7277 12.6197 3.36997C12.9774 3.01225 13.4626 2.81128 13.9685 2.81128C14.219 2.81128 14.467 2.86062 14.6985 2.95648C14.9299 3.05234 15.1402 3.19285 15.3173 3.36997C15.4944 3.5471 15.6349 3.75738 15.7308 3.98881C15.8267 4.22024 15.876 4.46828 15.876 4.71878C15.876 4.96928 15.8267 5.21732 15.7308 5.44875C15.6349 5.68018 15.4944 5.89046 15.3173 6.06759C15.1402 6.24471 14.9299 6.38522 14.6985 6.48108C14.467 6.57694 14.219 6.62628 13.9685 6.62628C13.4626 6.62628 12.9774 6.42531 12.6197 6.06759C12.262 5.70986 12.061 5.22468 12.061 4.71878Z" stroke="white" stroke-width="1.5" stroke-miterlimit="10" stroke-linecap="round"/>
</svg>
