<svg width="94" height="94" viewBox="0 0 94 94" fill="none" xmlns="http://www.w3.org/2000/svg">
<path d="M47.0313 -1.63263e-05C52.6 -1.63263e-05 58.1686 -0.00300083 63.7373 -1.63263e-05C66.979 0.00296818 68.8888 1.91902 68.8918 5.17512C68.8948 12.1887 68.8978 19.2023 68.8918 26.2159C68.8888 29.3974 66.9522 31.3283 63.7731 31.3343C60.2871 31.3403 56.804 31.3522 53.318 31.3194C52.6923 31.3134 52.305 31.4985 51.9445 32.0058C50.8033 33.5936 49.6234 35.1515 48.4376 36.7094C47.5229 37.9092 46.4711 37.9151 45.5654 36.7243C44.4004 35.1963 43.2324 33.6682 42.1151 32.1013C41.7159 31.5402 41.2928 31.3134 40.5926 31.3194C37.1096 31.3552 33.6236 31.3403 30.1376 31.3343C27.0478 31.3283 25.0963 29.3586 25.0963 26.2427C25.0903 19.1963 25.0903 12.1499 25.0963 5.10349C25.0992 1.93096 27.0389 0.00296818 30.224 -1.63263e-05C35.8284 -0.00300083 41.4298 -1.63263e-05 47.0313 -1.63263e-05ZM46.9717 21.9361C50.556 21.9361 54.1404 21.9451 57.7247 21.9301C58.8033 21.9272 59.4885 21.3064 59.5005 20.3901C59.5154 19.4739 58.8271 18.8083 57.7694 18.8083C50.6007 18.7964 43.435 18.7874 36.2664 18.8382C35.742 18.8412 35.0388 19.2053 34.7349 19.6291C33.9811 20.6766 34.866 21.9271 36.32 21.9331C39.8716 21.948 43.4201 21.9361 46.9717 21.9361ZM42.3237 9.40118C40.3691 9.40118 38.4146 9.39521 36.4601 9.40416C35.2206 9.40715 34.5055 9.97719 34.4906 10.9472C34.4787 11.9261 35.1967 12.5319 36.4183 12.5319C40.3274 12.5379 44.2365 12.5379 48.1456 12.5319C49.3821 12.5289 50.1002 11.9559 50.1151 10.986C50.13 10.013 49.403 9.40715 48.1844 9.40118C46.2328 9.39521 44.2782 9.40118 42.3237 9.40118Z" fill="#D99EB4"/>
<path d="M46.9926 69.8613C48.6432 68.2049 50.2223 66.653 51.7568 65.0622C52.3497 64.4474 52.9992 64.2117 53.8454 64.2415C60.1679 64.4594 65.6144 69.8972 65.7425 76.275C65.8289 80.4504 65.7574 84.6317 65.7693 88.807C65.7723 89.7113 65.3552 90.2634 64.5358 90.5917C57.8677 93.2599 50.9612 94.3761 43.7896 93.8836C38.9092 93.5464 34.2165 92.4511 29.6608 90.6783C28.6329 90.2783 28.1979 89.6576 28.2098 88.5473C28.2486 84.6317 28.2098 80.713 28.2277 76.7973C28.2575 70.2732 33.1558 64.919 39.6243 64.2684C40.7803 64.152 41.6771 64.4146 42.4935 65.307C43.9028 66.844 45.4194 68.2795 46.9926 69.8613Z" fill="#D99EB4"/>
<path d="M57.9422 51.6856C57.9541 57.7173 53.0618 62.6477 47.0402 62.6716C40.9829 62.6955 36.034 57.7472 36.0489 51.6767C36.0638 45.648 40.9799 40.7385 46.9985 40.7415C53.023 40.7444 57.9303 45.651 57.9422 51.6856Z" fill="#D99EB4"/>
<path d="M94 47.3253C93.4071 64.1788 86.2056 77.5643 71.8057 86.9417C71.5346 87.1177 71.2486 87.2998 70.9447 87.3893C70.1611 87.6251 69.5175 87.3595 69.1093 86.6641C68.6862 85.9418 68.862 85.2763 69.4668 84.7331C69.6814 84.5391 69.9465 84.3989 70.1938 84.2407C81.507 76.9286 88.5356 66.6679 90.2905 53.2913C92.4775 36.602 86.7062 22.8733 73.662 12.2365C73.3581 11.9888 73.0273 11.7769 72.7264 11.5292C71.9458 10.8875 71.7998 10.019 72.345 9.29078C72.8933 8.55659 73.802 8.36856 74.5826 9.02814C76.7934 10.8994 79.1055 12.6901 81.0869 14.7882C88.3568 22.4763 92.4894 31.6686 93.6722 42.186C93.851 43.8036 93.8838 45.4391 94 47.3253Z" fill="#D99EB4"/>
<path d="M0 46.7613C0.488637 31.4955 6.63533 18.8263 19.0121 9.29678C19.3876 9.00728 19.9119 8.61631 20.2814 8.69092C20.8386 8.80732 21.4762 9.18337 21.798 9.64597C22.2389 10.2817 21.9052 10.9771 21.3272 11.4546C20.3738 12.2455 19.3548 12.9588 18.4341 13.7825C7.90757 23.1986 2.61599 34.9934 3.2983 49.1041C4.02529 64.1281 10.9884 75.7856 23.5559 84.0587C23.8002 84.2198 24.0534 84.369 24.2918 84.5392C25.1141 85.1361 25.3287 86.0075 24.837 86.7447C24.3573 87.467 23.4129 87.6968 22.5935 87.1566C20.9369 86.0613 19.2535 84.9898 17.7101 83.7453C8.02079 75.9259 2.31209 65.8084 0.494596 53.4854C0.399252 52.8407 0.321785 52.1901 0.277093 51.5425C0.17877 50.0472 0.104282 48.549 0 46.7613Z" fill="#D99EB4"/>
<path d="M82.9938 48.7758C82.8269 57.3711 79.037 66.259 71.4423 73.4934C70.8076 74.0993 70.1492 74.5112 69.2672 74.0695C68.2572 73.5621 68.1827 72.3832 69.017 71.4431C70.7421 69.4942 72.6311 67.6498 74.103 65.5218C82.2429 53.7599 81.6887 37.9898 72.8605 26.7083C71.8564 25.425 71.7939 24.5863 72.6519 23.9059C73.51 23.2284 74.3205 23.488 75.3246 24.7594C80.2288 30.9702 82.9669 38.8821 82.9938 48.7758Z" fill="#D99EB4"/>
<path d="M11.0092 46.3673C11.1373 38.5837 13.6997 31.0777 18.9108 24.5178C19.2326 24.1119 19.751 23.6463 20.2039 23.6135C20.6896 23.5776 21.4583 23.897 21.652 24.288C21.8903 24.7655 21.8546 25.5862 21.5894 26.0637C20.9905 27.1382 20.1294 28.0604 19.4561 29.096C10.9049 42.186 12.931 59.8484 24.2084 70.6672C24.4676 70.9149 24.7328 71.1567 24.983 71.4103C25.7547 72.1982 25.8233 73.0727 25.1707 73.7442C24.5302 74.4068 23.6125 74.3948 22.8289 73.6875C20.0281 71.1507 17.6892 68.2408 15.8181 64.9608C12.633 59.3858 11.0539 53.369 11.0092 46.3673Z" fill="#D99EB4"/>
<path d="M72.0441 45.9913C71.916 53.5719 69.7142 59.332 65.1913 64.1729C64.5865 64.8205 63.8982 65.0653 63.1027 64.5669C62.4382 64.152 62.2386 63.4984 62.468 62.7791C62.5813 62.427 62.8643 62.1136 63.1206 61.8271C67.1488 57.3503 69.0676 52.0976 68.865 46.0838C68.7578 42.9173 67.9622 39.9089 66.5112 37.0825C66.3622 36.793 66.1894 36.5155 66.0613 36.217C65.665 35.3038 65.9511 34.4562 66.7704 34.0622C67.5511 33.6892 68.4181 33.9249 68.8144 34.8203C69.6695 36.7483 70.5961 38.6763 71.1562 40.6968C71.7164 42.7203 71.8654 44.8542 72.0441 45.9913Z" fill="#D99EB4"/>
<path d="M21.9619 47.009C22.0036 42.7949 22.9779 38.8165 24.9801 35.1008C25.5879 33.9727 26.3715 33.6175 27.2445 34.0652C28.1562 34.5308 28.3231 35.4112 27.7182 36.5871C23.2877 45.2093 24.4646 54.5807 30.8854 61.842C31.1208 62.1076 31.3919 62.3911 31.4932 62.7135C31.7346 63.4715 31.5469 64.152 30.8318 64.5758C30.072 65.0265 29.4046 64.8176 28.8177 64.1968C26.3417 61.5794 24.5063 58.574 23.3294 55.1657C22.4207 52.5244 21.9797 49.8025 21.9619 47.009Z" fill="#D99EB4"/>
</svg>
