<svg width="54" height="43" viewBox="0 0 54 43" fill="none" xmlns="http://www.w3.org/2000/svg">
<g clip-path="url(#clip0_5_1218)">
<path d="M23.9893 42.8035C25.3474 39.2306 26.6815 35.7319 28.0108 32.2308C31.9072 21.9697 35.8013 11.7061 39.6978 1.445C40.3011 -0.141379 40.3035 -0.141379 42.2409 0.160561C41.4212 2.35561 40.6112 4.5243 39.7338 6.86793C41.4236 6.86793 42.9092 6.74811 44.3682 6.90148C45.8177 7.05245 47.3272 7.27051 48.6589 7.82167C51.9809 9.19718 53.3222 11.9554 52.6587 15.49C52.1948 17.9654 50.5723 19.3553 48.3031 20.1293C47.7118 20.3306 47.0869 20.4312 46.4499 20.7787C47.1806 21.0016 47.9209 21.1981 48.6397 21.4497C52.5145 22.8108 54.3606 25.7104 53.9423 29.7818C53.7644 31.4976 52.9952 32.8778 51.5698 33.9035C49.4065 35.4563 46.9306 36.0913 44.3442 36.1704C40.9044 36.2735 37.4575 36.1513 34.0129 36.192C33.0466 36.204 32.7702 35.8924 32.8327 34.9459C33.025 31.9577 33.1428 28.967 33.2822 25.9764C33.3038 25.5259 33.2846 25.073 33.1956 24.62C31.1549 28.1762 30.0059 31.8762 31.3327 35.9524C30.8736 36.0698 30.6717 36.1896 30.4986 36.1536C28.8449 35.823 28.143 36.6808 27.744 38.1474C27.4219 39.336 26.8137 40.4455 26.4796 41.6317C26.1118 42.9233 25.3715 43.266 23.9893 42.8035ZM38.8372 28.1283C38.8324 28.1283 38.8276 28.1283 38.8252 28.1283C38.8252 30.0861 38.8685 32.0439 38.806 33.9993C38.7771 34.8956 39.1665 35.291 39.9574 35.5354C43.1904 36.5371 46.6542 34.9243 47.7359 31.706C48.1565 30.4527 48.2863 29.0437 48.2719 27.7089C48.2118 22.9258 44.6927 20.0886 39.9526 20.8218C39.092 20.956 38.806 21.2987 38.8228 22.1374C38.8661 24.136 38.8372 26.1321 38.8372 28.1283ZM47.1133 13.6903C47.0003 12.8636 46.9546 12.0225 46.7599 11.2149C46.0725 8.35606 43.4284 6.85834 40.5944 7.61798C39.3636 7.94628 38.8204 8.62445 38.842 9.91608C38.8901 12.7821 38.9286 15.6553 38.8132 18.519C38.7603 19.8393 39.3444 20.1581 40.4621 20.2515C44.4139 20.5774 47.0027 18.0157 47.1133 13.6903Z" fill="#6A457A"/>
<path d="M3.4591 8.57444C3.06969 12.7824 2.67788 16.9904 2.29569 21.1984C1.87263 25.8497 1.4664 30.501 1.01449 35.1499C0.980841 35.4974 0.632299 35.8137 0.427981 36.1468C0.278949 35.7658 -0.0263254 35.3704 0.00251945 35.0037C0.562591 28.0399 1.16353 21.081 1.75725 14.122C1.95916 11.7424 2.16348 9.36763 2.37741 6.87303C4.60568 6.87303 6.72097 6.8299 8.82905 6.92096C9.12952 6.93294 9.55017 7.5488 9.67036 7.95618C11.3986 13.8105 13.0813 19.6767 14.7807 25.5406C14.8985 25.9455 15.0619 26.3385 15.4898 26.7435C15.6148 26.3553 15.7518 25.9671 15.8672 25.5741C17.5642 19.7486 19.2757 13.9279 20.9295 8.09038C21.1915 7.16778 21.5568 6.79875 22.564 6.84428C24.5567 6.93294 26.559 6.87064 28.7152 6.87064C28.8209 8.02328 28.9195 9.10882 29.0181 10.1944C29.0926 10.2159 29.1671 10.2375 29.2416 10.2591C29.3954 9.92837 29.5685 9.60726 29.6983 9.26938C30.6935 6.65736 31.6814 4.04295 32.6717 1.42854C33.2655 -0.141065 33.2655 -0.141065 35.1692 0.151289C35.049 0.525118 34.9529 0.886966 34.8207 1.23683C29.6599 14.7786 24.4774 28.3131 19.3574 41.8692C18.8791 43.1369 18.1243 43.0962 16.9873 42.8422C17.2998 41.9819 17.5859 41.1647 17.8911 40.3572C19.8718 35.1307 21.8717 29.9115 23.8188 24.6731C24.0567 24.0309 24.1577 23.2664 24.0736 22.5883C23.5303 18.1119 22.9198 13.6451 22.326 9.17352C22.2972 8.96025 22.2275 8.74937 22.0953 8.19102C21.8621 8.83085 21.7275 9.13998 21.6338 9.46348C19.182 17.7692 16.7349 26.0773 14.2879 34.3855C14.2543 34.5005 14.2591 34.6467 14.187 34.7257C13.8048 35.1595 13.4058 35.5764 13.0116 36.0006C12.6534 35.586 12.1462 35.229 11.9659 34.7473C11.5597 33.669 11.3482 32.5187 11.0044 31.414C8.69204 24.0261 6.36762 16.6429 4.0408 9.2574C3.96148 9.00338 3.82927 8.76615 3.7211 8.52172C3.62976 8.54089 3.54563 8.55766 3.4591 8.57444Z" fill="#6A457A"/>
</g>
<defs>
<clipPath id="clip0_5_1218">
<rect width="54" height="43" fill="white"/>
</clipPath>
</defs>
</svg>
