<svg width="35" height="35" viewBox="0 0 35 35" fill="none" xmlns="http://www.w3.org/2000/svg">
<g clip-path="url(#clip0_5_686)">
<path d="M27.7083 11.6667C28.4819 11.6667 29.2237 11.974 29.7707 12.5209C30.3177 13.0679 30.625 13.8098 30.625 14.5833V27.7083C30.625 28.4819 30.3177 29.2237 29.7707 29.7707C29.2237 30.3177 28.4819 30.625 27.7083 30.625H14.5833C13.8098 30.625 13.0679 30.3177 12.5209 29.7707C11.974 29.2237 11.6667 28.4819 11.6667 27.7083V23.3333H20.4167C21.1902 23.3333 21.9321 23.026 22.4791 22.4791C23.026 21.9321 23.3333 21.1902 23.3333 20.4167V11.6667H27.7083ZM20.4167 4.375C21.1902 4.375 21.9321 4.68229 22.4791 5.22927C23.026 5.77625 23.3333 6.51812 23.3333 7.29167V11.6667H14.5833C13.8098 11.6667 13.0679 11.974 12.5209 12.5209C11.974 13.0679 11.6667 13.8098 11.6667 14.5833V23.3333H7.29167C6.51812 23.3333 5.77625 23.026 5.22927 22.4791C4.68229 21.9321 4.375 21.1902 4.375 20.4167V7.29167C4.375 6.51812 4.68229 5.77625 5.22927 5.22927C5.77625 4.68229 6.51812 4.375 7.29167 4.375H20.4167ZM20.4167 14.5833V20.4167H14.5833V14.5833H20.4167Z" fill="#D99EB4"/>
</g>
<defs>
<clipPath id="clip0_5_686">
<rect width="35" height="35" rx="17.5" fill="white"/>
</clipPath>
</defs>
</svg>
