<svg width="46" height="46" viewBox="0 0 46 46" fill="none" xmlns="http://www.w3.org/2000/svg">
<rect width="46" height="46" rx="23" fill="#D99EB4"/>
<path fill-rule="evenodd" clip-rule="evenodd" d="M18.2589 14.6485C19.2924 14.2203 20.4002 14 21.5189 14C22.6376 14 23.7454 14.2203 24.7789 14.6485C25.8125 15.0766 26.7516 15.7041 27.5427 16.4951C28.3337 17.2862 28.9612 18.2253 29.3893 19.2589C29.8174 20.2924 30.0378 21.4002 30.0378 22.5189C30.0378 23.6376 29.8174 24.7454 29.3893 25.7789C29.0468 26.6059 28.5766 27.3724 27.9971 28.051L31.8041 31.8579C32.0653 32.1192 32.0653 32.5428 31.8041 32.8041C31.5428 33.0653 31.1192 33.0653 30.8579 32.8041L27.051 28.9971C25.5144 30.3095 23.5542 31.0378 21.5189 31.0378C19.2595 31.0378 17.0927 30.1403 15.4951 28.5427C13.8975 26.9451 13 24.7782 13 22.5189C13 20.2595 13.8975 18.0927 15.4951 16.4951C16.2862 15.7041 17.2253 15.0766 18.2589 14.6485ZM21.5189 15.338C20.5759 15.338 19.6421 15.5238 18.7709 15.8846C17.8997 16.2455 17.1081 16.7744 16.4412 17.4412C15.0946 18.7879 14.338 20.6144 14.338 22.5189C14.338 24.4234 15.0946 26.2499 16.4412 27.5965C17.7879 28.9432 19.6144 29.6998 21.5189 29.6998C23.4234 29.6998 25.2499 28.9432 26.5965 27.5965C27.2633 26.9297 27.7923 26.1381 28.1532 25.2669C28.514 24.3957 28.6998 23.4619 28.6998 22.5189C28.6998 21.5759 28.514 20.6421 28.1532 19.7709C27.7923 18.8997 27.2633 18.1081 26.5965 17.4412C25.9297 16.7744 25.1381 16.2455 24.2669 15.8846C23.3957 15.5238 22.4619 15.338 21.5189 15.338Z" fill="white"/>
</svg>
