<svg width="19" height="19" viewBox="0 0 19 19" fill="none" xmlns="http://www.w3.org/2000/svg">
<path fill-rule="evenodd" clip-rule="evenodd" d="M5.25885 0.648462C6.29241 0.220348 7.40018 0 8.51889 0C9.63761 0 10.7454 0.220348 11.7789 0.648462C12.8125 1.07658 13.7516 1.70407 14.5427 2.49513C15.3337 3.28618 15.9612 4.22529 16.3893 5.25885C16.8174 6.29241 17.0378 7.40018 17.0378 8.51889C17.0378 9.63761 16.8174 10.7454 16.3893 11.7789C16.0468 12.6059 15.5766 13.3724 14.9971 14.051L18.8041 17.8579C19.0653 18.1192 19.0653 18.5428 18.8041 18.8041C18.5428 19.0653 18.1192 19.0653 17.8579 18.8041L14.051 14.9971C12.5144 16.3095 10.5542 17.0378 8.51889 17.0378C6.25954 17.0378 4.09273 16.1403 2.49513 14.5427C0.897523 12.9451 0 10.7782 0 8.51889C0 6.25954 0.897523 4.09273 2.49513 2.49513C3.28618 1.70407 4.22529 1.07658 5.25885 0.648462ZM8.51889 1.33801C7.57589 1.33801 6.64211 1.52375 5.77089 1.88463C4.89966 2.2455 4.10805 2.77444 3.44124 3.44124C2.09457 4.78792 1.33801 6.6144 1.33801 8.51889C1.33801 10.4234 2.09457 12.2499 3.44124 13.5965C4.78792 14.9432 6.6144 15.6998 8.51889 15.6998C10.4234 15.6998 12.2499 14.9432 13.5965 13.5965C14.2633 12.9297 14.7923 12.1381 15.1532 11.2669C15.514 10.3957 15.6998 9.4619 15.6998 8.51889C15.6998 7.57588 15.514 6.64211 15.1532 5.77089C14.7923 4.89966 14.2633 4.10805 13.5965 3.44124C12.9297 2.77444 12.1381 2.2455 11.2669 1.88463C10.3957 1.52375 9.4619 1.33801 8.51889 1.33801Z" fill="white"/>
</svg>
